:SAMPLES-PER-SECOND 30
:FULLY-SPECIFIED
:DEGREES
444
root  13.9708 34.4905 5.08758 141.116 -81.1703 -150.958
RightUpLeg  -32.4988 -1.75321 -27.9402
RightLeg  40.7563 2.99168 2.37174
RightFoot  38.831 -4.21872 9.54726
RightToes  -5.28226e-011 1.30204e-014 -6.03759e-014
Spine  30.8287 3.65227 -11.7953
Spine1  -1.79901 -0.553901 8.326
HEad  -17.3249 15.4954 -8.91375
LeftShoulder1  2.26566 -4.48827 -22.0933
LeftArm  -22.4465 24.1513 -34.7037
LeftForeArm  -43.8126 -31.2449 -8.77097
LeftHand  0.493371 7.12353 31.8726
RightShoulder  0.787651 0.143245 14.9206
RightArm  -21.1657 -10.1594 38.5399
RightForeArm  -31.7847 28.8394 7.75806
RightHand  -1.80121 0.750949 -33.3671
LeftUpLeg  -9.7491 17.8901 29.7959
LeftLeg  52.059 5.59483 8.12389
LeftFoot  -16.5356 -1.34414 -31.0857
LeftToes  -2.75829e-010 5.07641e-011 -5.51782e-011
445
root  14.0594 33.3838 3.71683 104.356 -82.6527 -113.621
RightUpLeg  -31.7537 -3.00525 -23.476
RightLeg  46.6703 -2.3541 -3.03402
RightFoot  31.4732 -4.67652 12.7203
RightToes  -5.28226e-011 1.30204e-014 -6.03759e-014
Spine  32.5835 0.789985 -20.2358
Spine1  -2.14655 -8.17043 21.2078
HEad  -18.4591 29.5526 -10.4088
LeftShoulder1  2.81792 -6.86672 -20.8578
LeftArm  -9.73573 32.7846 -29.6467
LeftForeArm  -50.4963 -18.9922 -7.8353
LeftHand  0.494836 7.23579 30.2189
RightShoulder  0.55735 -0.905506 14.8173
RightArm  -25.1612 -7.26554 50.5848
RightForeArm  -26.2617 43.5807 12.4032
RightHand  -1.78903 0.679478 -33.4962
LeftUpLeg  -15.5459 15.88 34.2634
LeftLeg  56.0182 2.55402 4.62645
LeftFoot  -17.2078 -1.54976 -31.4857
LeftToes  -2.75829e-010 5.07641e-011 -5.51782e-011
446
root  14.1042 32.3111 2.37962 53.5243 -81.2802 -62.4218
RightUpLeg  -29.2017 -6.596 -23.1088
RightLeg  52.4941 -4.32859 -6.2641
RightFoot  18.4758 -6.2976 24.0936
RightToes  -5.28226e-011 1.30204e-014 -6.03759e-014
Spine  35.0135 -0.928414 -23.8421
Spine1  -1.50282 -13.0576 28.5018
HEad  -20.287 33.8798 -9.59686
LeftShoulder1  2.42395 -7.26518 -15.5621
LeftArm  -3.81798 33.8187 -29.3685
LeftForeArm  -45.1251 -10.1671 -12.2405
LeftHand  0.82542 8.3607 31.2503
RightShoulder  0.686278 -0.50968 16.309
RightArm  -25.745 -14.2517 55.4082
RightForeArm  -20.3501 57.7916 19.7193
RightHand  -1.3826 -0.47788 -32.0552
LeftUpLeg  -22.3088 12.2064 36.3449
LeftLeg  58.8997 0.460268 1.41454
LeftFoot  -16.6125 -1.38529 -31.4921
LeftToes  -2.75829e-010 5.07641e-011 -5.51782e-011
447
root  14.0211 31.1586 1.34599 21.0908 -78.0792 -30.3418
RightUpLeg  -26.6262 -11.4165 -27.6665
RightLeg  58.245 -0.304172 -0.861519
RightFoot  5.4491 -5.04092 32.9187
RightToes  -5.28226e-011 1.30204e-014 -6.03759e-014
Spine  35.7462 -0.440025 -20.2342
Spine1  0.170072 -11.7026 25.382
HEad  -23.1766 23.9802 -6.32724
LeftShoulder1  1.61401 -5.2421 -11.4563
LeftArm  -0.0831752 20.4222 -28.2366
LeftForeArm  -39.1564 -9.94726 -13.0422
LeftHand  0.980137 8.65127 33.6483
RightShoulder  1.271 1.39362 19.3631
RightArm  -29.4521 -26.0611 50.3745
RightForeArm  -18.9708 62.628 24.2553
RightHand  -1.14807 -1.18055 -31.1518
LeftUpLeg  -27.5516 7.32355 35.3882
LeftLeg  61.9552 -0.299537 0.0338505
LeftFoot  -17.0743 -1.55458 -32.201
LeftToes  -2.75829e-010 5.07641e-011 -5.51782e-011
448
root  13.8546 30.0433 0.645687 5.75912 -78.7999 -16.5272
RightUpLeg  -26.5831 -12.7935 -32.4709
RightLeg  63.7054 3.34107 6.69481
RightFoot  -3.07354 -2.42528 32.0554
RightToes  -5.28226e-011 1.30204e-014 -6.03759e-014
Spine  34.8468 1.22268 -9.82271
Spine1  2.90521 -4.31178 11.1222
HEad  -25.7788 7.05576 -1.90971
LeftShoulder1  1.62606 -3.80383 -15.2441
LeftArm  4.47768 -0.205238 -22.3238
LeftForeArm  -41.7267 -18.8766 -9.80983
LeftHand  0.496807 7.08796 32.5017
RightShoulder  1.9672 2.94592 24.584
RightArm  -28.8429 -36.0901 40.3011
RightForeArm  -27.6765 56.523 19.4313
RightHand  -1.43607 -0.389357 -32.6084
LeftUpLeg  -27.564 4.86315 34.3789
LeftLeg  65.1583 -0.354172 -0.135275
LeftFoot  -19.0369 -2.24278 -34.0315
LeftToes  -2.75829e-010 5.07641e-011 -5.51782e-011
449
root  13.6495 29.1884 -0.0208951 4.98318 -84.4412 -18.0042
RightUpLeg  -29.1115 -7.70529 -32.6097
RightLeg  67.5822 3.52349 8.60729
RightFoot  -9.56803 -0.512337 29.3057
RightToes  -5.28226e-011 1.30204e-014 -6.03759e-014
Spine  35.4083 2.08824 -1.24319
Spine1  4.30047 2.10563 -1.90836
HEad  -25.8565 0.191954 -1.42258
LeftShoulder1  2.15744 -4.71465 -19.8327
LeftArm  -1.45654 -5.34068 -16.5078
LeftForeArm  -44.9473 -27.4118 -7.2831
LeftHand  0.0898256 5.75185 28.1258
RightShoulder  1.86048 2.42814 25.0535
RightArm  -22.4988 -36.6269 35.6891
RightForeArm  -35.5377 47.7987 14.4123
RightHand  -1.77545 0.264359 -35.6092
LeftUpLeg  -22.3657 6.83302 36.2729
LeftLeg  66.9447 -0.548789 -0.659742
LeftFoot  -20.4807 -2.81405 -35.6383
LeftToes  -2.75829e-010 5.07641e-011 -5.51782e-011
450
root  13.3164 28.7232 -0.96636 12.1183 -89.9894 -26.3784
RightUpLeg  -31.3038 0.0534995 -29.6907
RightLeg  70.0626 2.32489 6.32841
RightFoot  -16.5977 1.30791 30.0918
RightToes  -5.28226e-011 1.30204e-014 -6.03759e-014
Spine  36.4072 1.58255 -3.70981
Spine1  2.53766 0.818521 -1.44132
HEad  -24.3763 10.7864 -7.1059
LeftShoulder1  1.88802 -4.21567 -17.8381
LeftArm  -12.0344 10.3308 -16.1125
LeftForeArm  -42.2 -25.0246 -7.44381
LeftHand  -0.103665 4.95338 26.3064
RightShoulder  0.954786 0.374782 18.1945
RightArm  -22.5083 -25.6499 42.275
RightForeArm  -34.0875 42.7452 12.0896
RightHand  -1.84962 0.184556 -37.4662
LeftUpLeg  -16.4312 9.71447 40.2461
LeftLeg  65.7745 -0.975874 -1.632
LeftFoot  -19.9606 -2.72232 -36.4853
LeftToes  -2.75829e-010 5.07641e-011 -5.51782e-011
451
root  12.8214 28.7409 -2.08233 155.251 -88.2907 -169.491
RightUpLeg  -31.4945 3.94283 -27.2604
RightLeg  71.9807 1.53155 4.41968
RightFoot  -21.4316 2.65446 31.091
RightToes  -5.28226e-011 1.30204e-014 -6.03759e-014
Spine  36.3133 -0.528149 -12.59
Spine1  0.0876549 -6.09662 8.01827
HEad  -24.9331 28.5349 -14.3701
LeftShoulder1  1.69095 -3.26562 -18.43
LeftArm  -12.8861 31.0275 -15.7923
LeftForeArm  -42.2753 -15.643 -7.54702
LeftHand  0.0917909 5.72487 27.7775
RightShoulder  0.681778 -0.385682 15.1663
RightArm  -26.8924 -14.0294 52.1378
RightForeArm  -25.0879 47.5891 14.0648
RightHand  -1.84456 0.0169205 -38.4339
LeftUpLeg  -12.9298 9.19513 42.3014
LeftLeg  61.801 -0.907019 -1.24958
LeftFoot  -18.1519 -2.23542 -38.0359
LeftToes  -2.75829e-010 5.07641e-011 -5.51782e-011
452
root  12.327 29.3345 -2.96228 161.179 -89.7366 -175.128
RightUpLeg  -29.7327 2.43388 -26.0612
RightLeg  71.9882 1.38422 3.89751
RightFoot  -21.9374 2.68882 29.9298
RightToes  -5.28226e-011 1.30204e-014 -6.03759e-014
Spine  35.271 -2.76428 -14.9195
Spine1  0.254682 -9.63627 11.7668
HEad  -25.2749 34.9384 -16.4745
LeftShoulder1  1.72235 -2.76082 -21.0581
LeftArm  -6.90551 38.5269 -18.0806
LeftForeArm  -48.5233 -13.0543 -8.93297
LeftHand  0.741384 8.19025 30.1685
RightShoulder  1.21127 1.35477 18.4411
RightArm  -27.6384 -15.742 55.4836
RightForeArm  -19.7318 58.4873 20.377
RightHand  -1.84833 -0.118279 -39.4345
LeftUpLeg  -11.4013 5.04524 40.8632
LeftLeg  56.6453 1.30424 2.58805
LeftFoot  -14.5143 -1.06993 -40.88
LeftToes  -2.75829e-010 5.07641e-011 -5.51782e-011
453
root  11.9594 30.4447 -3.53815 -31.3534 -87.3962 17.854
RightUpLeg  -26.0189 -1.19128 -26.0358
RightLeg  68.5008 1.78036 4.2376
RightFoot  -20.5098 2.23622 29.0623
RightToes  -5.28226e-011 1.30204e-014 -6.03759e-014
Spine  33.3074 -3.08021 -8.4971
Spine1  1.69702 -6.80322 7.08653
HEad  -22.7465 26.157 -12.6637
LeftShoulder1  1.20585 -1.30011 -18.4236
LeftArm  -5.12194 34.8211 -28.4081
LeftForeArm  -50.2543 -21.7717 -8.17529
LeftHand  0.583652 7.49767 30.9505
RightShoulder  1.7174 2.71152 21.4015
RightArm  -29.8345 -25.9657 53.8144
RightForeArm  -18.5008 63.7468 25.3928
RightHand  -1.76422 -0.306996 -39.0312
LeftUpLeg  -11.6001 0.277259 37.6473
LeftLeg  52.141 6.15162 8.87275
LeftFoot  -5.70876 2.14436 -41.7322
LeftToes  -2.75829e-010 5.07641e-011 -5.51782e-011
